<svg width="418" height="281" version="1.2" viewBox="0 0 419 280" xmlns="http://www.w3.org/2000/svg" xmlns:xlink="http://www.w3.org/1999/xlink">
 <title>Logo Maker 52 - FabLab Chaumont</title>
 <defs>
  <symbol id="mmaj" overflow="visible">
   <path d="m19.2 0v-17.2l-.36-7.91-.703-7.48h.141l9.25 32.6h11.6l9.25-32.6h.14l-.843 9.17-.219 7.91v15.5h15v-50.8h-20.1l-8.97 31.7-8.95-31.7h-20.1v50.8z"/>
  </symbol>
  <symbol id="s" overflow="visible">
   <path d="m32.7-17.3h-10.5l5.14-18.2zm-15.6 17.3 1.91-6.7h16.6l1.98 6.7h16.6l-18.2-50.8h-17l-18.2 50.8z"/>
  </symbol>
  <symbol id="r" overflow="visible">
   <path d="m5.3 0h16.7v-16.1l3.95-4.17 12.2 20.3h20l-20.5-31.7 18.6-19.1h-19.6l-14.6 16.5v-16.5h-16.7z"/>
  </symbol>
  <symbol id="q" overflow="visible">
   <path d="m47.8 0v-11.9h-25.8v-7.98h21v-11.9h-21v-7.26h24.8v-11.9h-41.4v50.8z"/>
  </symbol>
  <symbol id="p" overflow="visible">
   <path d="m21-39h7.77c3.88 0 6.7 1.69 6.7 5.3 0 3.53-2.75 4.8-7.91 4.8h-6.56zm5.08 21.2c7.77 0 8.89 2.19 8.89 8.83 0 4.52.438 7.77.86 8.89h16.9v-1.55c-1.97 0-1.77-2.27-1.77-8.91 0-10.2-3.23-11.5-8.61-13.5 5.94-1.62 8.55-6.56 8.55-12.4 0-9.88-5.58-14.5-22.5-14.5h-24v50.8h16.7v-17.7z"/>
  </symbol>
  <symbol id="n" overflow="visible">
   <path d="m3.81-21.5 13.8.484c1.13-2.19 3.74-2.75 5.92-2.75 4.45 0 6.42 3.11 6.42 7.2 0 3.67-2.83 6.56-7.12 6.56-2.69 0-5.52-1.41-6.36-4.03 0-.14-.14-.344-.14-.485l-14.8 1.48c2.83 9.17 9.88 14 20.8 14 11.4 0 22.3-4.52 22.3-18.3 0-9.95-7.41-15.8-16.9-15.8-3.75 0-7.2.422-10.3 2.69l1.62-7.48h21.6v-12h-31.9z"/>
  </symbol>
  <symbol id="m" overflow="visible">
   <path d="m45.8 0v-12h-23.1c2.61-1.84 6.42-3.75 10-6 6.5-4.03 13.2-7.62 13.2-16.4 0-11.6-9.67-16.1-20-16.1-12.9 0-20.9 5.92-21.1 20.5h13.2c-.078-4.8 1.55-9.53 7.19-9.53 2.97 0 6 1.84 6 5.02 0 8.27-13 11.7-21.4 20.3-3.96 4.09-6.22 8.34-5.94 14.1z"/>
  </symbol>
  <symbol id="l" overflow="visible">
   <path d="m12.7 0v-10.3h10.5v-6.86h-10.5v-5.34h13.2v-6.86h-22.9v29.4z"/>
  </symbol>
  <symbol id="a" overflow="visible">
   <path d="m25.9 0v-.406c-1.11-.906-1.14-1.52-1.14-2.74v-10c0-5.11-.61-8.86-10.7-8.86-8.45 0-11.7 2.66-11.7 7.19h8.16c.203-1.84 1.8-2.08 2.98-2.08.89 0 2.78.203 2.78 1.75 0 4-15.2-.406-15.2 9.3 0 4.45 3.59 6.45 7.64 6.45 3.17 0 5.63-.656 8.03-2.89l.406 2.28zm-13.4-4.2c-1.67 0-2.69-.734-2.69-1.8 0-2.78 3.67-2.12 6.45-3.47.203 2.94-.782 5.27-3.77 5.27z"/>
  </symbol>
  <symbol id="b" overflow="visible">
   <path d="m10.5-29.4h-8.5v29.4h7.64v-3.02h.079c1.06 2.03 3.02 3.63 6.58 3.63 6.97 0 9.67-5.09 9.67-11.4 0-6.45-3.84-11.2-9.31-11.2-2.53 0-4.48.813-6.16 2.78zm3.38 23.9c-2.77 0-3.58-2.89-3.58-5.17 0-2.2 1.02-4.73 3.58-4.73 2.73 0 3.59 2.61 3.59 4.89 0 2.33-.813 5.02-3.59 5.02z"/>
  </symbol>
  <symbol id="h" overflow="visible">
   <path d="m26 0v-6.86h-13.2v-22.5h-9.62v29.4z"/>
  </symbol>
  <symbol id="f" overflow="visible">
   <path d="m30.3-18.2c-.781-7.56-5.8-12-14.8-12-8.2 0-14.7 5.91-14.7 15.4 0 9.55 5.89 15.5 15.6 15.5 7.77 0 13.2-4.58 14-12.2h-9.27c-.375 2.81-1.84 4.98-4.94 4.98-4.91 0-5.8-3.88-5.8-8 0-5.67 2.03-8.58 5.42-8.58 3.03 0 4.94 1.77 5.23 4.83z"/>
  </symbol>
  <symbol id="e" overflow="visible">
   <path d="m1.95 0h8.5v-10.9c0-2.73.688-4.41 3.3-4.41 2.41 0 2.98 1.88 2.98 3.98v11.3h8.48v-12.8c0-5.88-2.66-9.19-8.28-9.19-2.86 0-4.78 1.14-6.48 3.31v-10.7h-8.5z"/>
  </symbol>
  <symbol id="d" overflow="visible">
   <path d="m25.2-21.4h-8.48v10.3c0 3.3-.782 5.14-3.22 5.14-2.05 0-3.06-.937-3.06-3.87v-11.6h-8.5v13c0 6.11 3.03 8.97 7.67 8.97 3.52 0 5.59-.813 7.72-3.75v3.14h7.88z"/>
  </symbol>
  <symbol id="c" overflow="visible">
   <path d="m1.84 0h8.48v-10.6c0-2.56.485-4.72 2.98-4.72 2.23 0 2.84 1.25 2.84 4.41v10.9h8.5v-10.6c0-2.56.485-4.72 2.97-4.72 2.25 0 2.86 1.25 2.86 4.41v10.9h8.48v-12.7c0-5.83-1.95-9.34-8.2-9.34-3.14 0-5.55 1.34-7.38 3.92-1.03-2.28-3.14-3.92-6.98-3.92-3.06 0-5.72 2.17-6.78 3.8v-3.19h-7.78z"/>
  </symbol>
  <symbol id="k" overflow="visible">
   <path d="m13.7-16.3c2.2-.125 3.59 2.23 3.59 5.39 0 4.03-1.39 5.8-3.67 5.8-2.17 0-3.67-1.77-3.67-5.8 0-2.42.86-5.39 3.75-5.39zm-12.2 5.83c0 7.31 5.31 11.1 12.2 11.1s12.2-3.67 12.2-11.5c0-6.66-4.66-11.1-12.2-11.1-7.22 0-12.1 4.12-12.1 11.5z"/>
  </symbol>
  <symbol id="j" overflow="visible">
   <path d="m1.95 0h8.5v-10.9c0-2.73.688-4.41 3.3-4.41 2.41 0 2.98 1.88 2.98 3.98v11.3h8.48v-12.8c0-5.88-2.66-9.19-8.28-9.19-3.22 0-5.31 1.39-7.22 3.95v-3.34h-7.76z"/>
  </symbol>
  <symbol id="i" overflow="visible">
   <path d="m16.1-6.08h-1.34c-2.38 0-2.66-.703-2.66-2.66v-7.75h4.08v-4.91h-4.08v-6.64h-8.36v6.64h-3.14v4.91h3.02v8.94c-.001 7.39 1.34 8.16 12.5 7.55z"/>
  </symbol>
 </defs>
 <g transform="translate(-193 -44)">
  <g transform="translate(1118 344)">
   <rect x="-924" y="-301" width="419" height="281" fill="#fff"/>
   <path d="m-914-86.5h399v19.1h-399z" fill="#35469d"/>
   <use transform="translate(-1015 -428)" x="96.084999" y="192.327" width="100%" height="100%" fill="#e94d00" xlink:href="#mmaj"/>
   <use transform="translate(-1015 -428)" x="162.731" y="192.327" width="100%" height="100%" fill="#e94d00" xlink:href="#s"/>
   <use transform="translate(-1015 -428)" x="217.658" y="192.327" width="100%" height="100%" fill="#e94d00" xlink:href="#r"/>
   <use transform="translate(-1015 -428)" x="276.46701" y="192.327" width="100%" height="100%" fill="#e94d00" xlink:href="#q"/>
   <use transform="translate(-1015 -428)" x="327.44101" y="192.327" width="100%" height="100%" fill="#e94d00" xlink:href="#p"/>
   <use transform="translate(-897 -114)" x="382.367" y="192.327" width="100%" height="100%" fill="#e94d00" xlink:href="#o"/>
   <use transform="translate(-1015 -428)" x="405.87701" y="192.327" width="100%" height="100%" fill="#e94d00" xlink:href="#n"/>
   <use transform="translate(-1015 -428)" x="452.96701" y="192.327" width="100%" height="100%" fill="#e94d00" xlink:href="#m"/>
   <use transform="translate(-1015 -432)" x="97.431" y="402.95001" width="100%" height="100%" fill="#e94d00" xlink:href="#l"/>
   <use transform="translate(-1015 -432)" x="124.649" y="402.95001" width="100%" height="100%" fill="#e94d00" xlink:href="#a"/>
   <use transform="translate(-1015 -432)" x="151.867" y="402.95001" width="100%" height="100%" fill="#e94d00" xlink:href="#b"/>
   <use transform="translate(-1015 -432)" x="179.08501" y="402.95001" width="100%" height="100%" fill="#e94d00" xlink:href="#h"/>
   <use transform="translate(-1015 -432)" x="206.30299" y="402.95001" width="100%" height="100%" fill="#e94d00" xlink:href="#a"/>
   <use transform="translate(-1015 -432)" x="233.521" y="402.95001" width="100%" height="100%" fill="#e94d00" xlink:href="#b"/>
   <use transform="translate(-897 -114)" x="260.73901" y="402.95001" width="100%" height="100%" fill="#e94d00" xlink:href="#g"/>
   <use transform="translate(-1015 -432)" x="274.327" y="402.95001" width="100%" height="100%" fill="#e94d00" xlink:href="#f"/>
   <use transform="translate(-1015 -432)" x="306.07501" y="402.95001" width="100%" height="100%" fill="#e94d00" xlink:href="#e"/>
   <use transform="translate(-1015 -432)" x="333.293" y="402.95001" width="100%" height="100%" fill="#e94d00" xlink:href="#a"/>
   <use transform="translate(-1015 -432)" x="360.51099" y="402.95001" width="100%" height="100%" fill="#e94d00" xlink:href="#d"/>
   <use transform="translate(-1015 -432)" x="387.729" y="402.95001" width="100%" height="100%" fill="#e94d00" xlink:href="#c"/>
   <use transform="translate(-1015 -432)" x="428.535" y="402.95001" width="100%" height="100%" fill="#e94d00" xlink:href="#k"/>
   <use transform="translate(-1015 -432)" x="455.75299" y="402.95001" width="100%" height="100%" fill="#e94d00" xlink:href="#j"/>
   <use transform="translate(-1015 -432)" x="482.97101" y="402.95001" width="100%" height="100%" fill="#e94d00" xlink:href="#i"/>
  </g>
  <rect x="203" y="120" width="399" height="128"/>
  <path d="m245 131a21.3 19.6 0 0 0-21.3 19.3h-.012v36h42.5v-36h-.023a21.3 19.6 0 0 0-21.3-19.3z" fill="#fff"/>
  <path d="m308 131a21.3 19.6 0 0 0-21.3 19.3h-.012v36h42.5v-36h-.023a21.3 19.6 0 0 0-21.3-19.3z" fill="#fff"/>
  <path d="m371 131a21.3 19.6 0 0 0-21.3 19.3h-.012v36h42.5v-36h-.023a21.3 19.6 0 0 0-21.3-19.3z" fill="#fff"/>
  <path d="m434 131a21.3 19.6 0 0 0-21.3 19.3h-.012v36h42.5v-36h-.023a21.3 19.6 0 0 0-21.3-19.3z" fill="#fff"/>
  <path d="m497 131a21.3 19.6 0 0 0-21.3 19.3h-.012v36h42.5v-36h-.023a21.3 19.6 0 0 0-21.3-19.3z" fill="#fff"/>
  <path d="m560 131a21.3 19.6 0 0 0-21.3 19.3h-.012v36h42.5v-36h-.023a21.3 19.6 0 0 0-21.3-19.3z" fill="#fff"/>
  <path d="m245 193a21.3 19.6 0 0 0-21.3 19.3h-.012v36h42.5v-36h-.023a21.3 19.6 0 0 0-21.3-19.3z" fill="#fff"/>
  <path d="m308 193a21.3 19.6 0 0 0-21.3 19.3h-.012v36h42.5v-36h-.023a21.3 19.6 0 0 0-21.3-19.3z" fill="#fff"/>
  <path d="m371 193a21.3 19.6 0 0 0-21.3 19.3h-.012v36h42.5v-36h-.023a21.3 19.6 0 0 0-21.3-19.3z" fill="#fff"/>
  <path d="m434 193a21.3 19.6 0 0 0-21.3 19.3h-.012v36h42.5v-36h-.023a21.3 19.6 0 0 0-21.3-19.3z" fill="#fff"/>
  <path d="m497 193a21.3 19.6 0 0 0-21.3 19.3h-.012v36h42.5v-36h-.023a21.3 19.6 0 0 0-21.3-19.3z" fill="#fff"/>
  <path d="m560 193a21.3 19.6 0 0 0-21.3 19.3h-.012v36h42.5v-36h-.023a21.3 19.6 0 0 0-21.3-19.3z" fill="#fff"/>
 </g>
</svg>
