<svg width="418.87pt" height="282.23pt" version="1.2" viewBox="0 0 418.87 282.23" xmlns="http://www.w3.org/2000/svg" xmlns:xlink="http://www.w3.org/1999/xlink">
 <defs>
  <g>
   <symbol id="t" overflow="visible">
    <path d="m19.203 0v-17.219l-0.35938-7.9062-0.70312-7.4844h0.14062l9.25 32.609h11.578l9.25-32.609h0.14062l-0.84375 9.1719-0.21875 7.9062v15.531h14.969v-50.828h-20.125l-8.9688 31.703-8.9531-31.703h-20.125v50.828z"/>
   </symbol>
   <symbol id="s" overflow="visible">
    <path d="m32.688-17.297h-10.516l5.1406-18.219zm-15.609 17.297 1.9062-6.7031h16.594l1.9844 6.7031h16.578l-18.203-50.828h-16.953l-18.203 50.828z"/>
   </symbol>
   <symbol id="r" overflow="visible">
    <path d="m5.2969 0h16.656v-16.094l3.9531-4.1719 12.219 20.266h19.969l-20.531-31.703 18.562-19.125h-19.562l-14.609 16.453v-16.453h-16.656z"/>
   </symbol>
   <symbol id="q" overflow="visible">
    <path d="m47.797 0v-11.859h-25.766v-7.9844h20.953v-11.859h-20.953v-7.2656h24.766v-11.859h-41.438v50.828z"/>
   </symbol>
   <symbol id="p" overflow="visible">
    <path d="m20.969-38.969h7.7656c3.875 0 6.7031 1.6875 6.7031 5.2969 0 3.5312-2.75 4.7969-7.9062 4.7969h-6.5625zm5.0781 21.25c7.7656 0 8.8906 2.1875 8.8906 8.8281 0 4.5156 0.4375 7.7656 0.85938 8.8906h16.859v-1.5469c-1.9688 0-1.7656-2.2656-1.7656-8.9062 0-10.234-3.2344-11.5-8.6094-13.484 5.9375-1.625 8.5469-6.5625 8.5469-12.422 0-9.875-5.5781-14.469-22.516-14.469h-24v50.828h16.656v-17.719z"/>
   </symbol>
   <symbol id="o" overflow="visible"></symbol>
   <symbol id="n" overflow="visible">
    <path d="m3.8125-21.453 13.844 0.48438c1.125-2.1875 3.7344-2.75 5.9219-2.75 4.4531 0 6.4219 3.1094 6.4219 7.2031 0 3.6719-2.8281 6.5625-7.125 6.5625-2.6875 0-5.5156-1.4062-6.3594-4.0312 0-0.14062-0.14062-0.34375-0.14062-0.48438l-14.75 1.4844c2.8281 9.1719 9.875 14.047 20.75 14.047 11.375 0 22.312-4.5156 22.312-18.281 0-9.9531-7.4062-15.75-16.938-15.75-3.75 0-7.2031 0.42188-10.312 2.6875l1.625-7.4844h21.594v-12h-31.906z"/>
   </symbol>
   <symbol id="m" overflow="visible">
    <path d="m45.812 0v-12h-23.078c2.6094-1.8438 6.4219-3.75 10.016-6 6.5-4.0312 13.203-7.625 13.203-16.375 0-11.578-9.6719-16.094-19.969-16.094-12.922 0-20.906 5.9219-21.109 20.531h13.203c-0.07813-4.7969 1.5469-9.5312 7.1875-9.5312 2.9688 0 6 1.8438 6 5.0156 0 8.2656-13.047 11.656-21.375 20.328-3.9531 4.0938-6.2188 8.3438-5.9375 14.125z"/>
   </symbol>
   <symbol id="l" overflow="visible">
    <path d="m12.656 0v-10.328h10.531v-6.8594h-10.531v-5.3438h13.219v-6.8594h-22.859v29.391z"/>
   </symbol>
   <symbol id="a" overflow="visible">
    <path d="m25.875 0v-0.40625c-1.1094-0.90625-1.1406-1.5156-1.1406-2.7344v-10c0-5.1094-0.60938-8.8594-10.734-8.8594-8.4531 0-11.672 2.6562-11.672 7.1875h8.1562c0.20312-1.8438 1.7969-2.0781 2.9844-2.0781 0.89062 0 2.7812 0.20312 2.7812 1.75 0 4-15.234-0.40625-15.234 9.2969 0 4.4531 3.5938 6.4531 7.6406 6.4531 3.1719 0 5.625-0.65625 8.0312-2.8906l0.40625 2.2812zm-13.391-4.2031c-1.6719 0-2.6875-0.73438-2.6875-1.7969 0-2.7812 3.6719-2.125 6.4531-3.4688 0.20312 2.9375-0.78125 5.2656-3.7656 5.2656z"/>
   </symbol>
   <symbol id="b" overflow="visible">
    <path d="m10.453-29.391h-8.5v29.391h7.6406v-3.0156h0.078125c1.0625 2.0312 3.0156 3.625 6.5781 3.625 6.9688 0 9.6719-5.0938 9.6719-11.422 0-6.4531-3.8438-11.188-9.3125-11.188-2.5312 0-4.4844 0.8125-6.1562 2.7812zm3.375 23.875c-2.7656 0-3.5781-2.8906-3.5781-5.1719 0-2.2031 1.0156-4.7344 3.5781-4.7344 2.7344 0 3.5938 2.6094 3.5938 4.8906 0 2.3281-0.8125 5.0156-3.5938 5.0156z"/>
   </symbol>
   <symbol id="h" overflow="visible">
    <path d="m25.953 0v-6.8594h-13.219v-22.531h-9.625v29.391z"/>
   </symbol>
   <symbol id="g" overflow="visible"></symbol>
   <symbol id="f" overflow="visible">
    <path d="m30.328-18.156c-0.78125-7.5625-5.7969-12-14.781-12-8.2031 0-14.656 5.9062-14.656 15.422 0 9.5469 5.8906 15.516 15.594 15.516 7.7656 0 13.188-4.5781 14.047-12.172h-9.2656c-0.375 2.8125-1.8438 4.9844-4.9375 4.9844-4.9062 0-5.7969-3.875-5.7969-8 0-5.6719 2.0312-8.5781 5.4219-8.5781 3.0312 0 4.9375 1.7656 5.2344 4.8281z"/>
   </symbol>
   <symbol id="e" overflow="visible">
    <path d="m1.9531 0h8.5v-10.891c0-2.7344 0.6875-4.4062 3.2969-4.4062 2.4062 0 2.9844 1.875 2.9844 3.9844v11.312h8.4844v-12.812c0-5.875-2.6562-9.1875-8.2812-9.1875-2.8594 0-4.7812 1.1406-6.4844 3.3125v-10.703h-8.5z"/>
   </symbol>
   <symbol id="d" overflow="visible">
    <path d="m25.219-21.391h-8.4844v10.297c0 3.2969-0.78125 5.1406-3.2188 5.1406-2.0469 0-3.0625-0.9375-3.0625-3.875v-11.562h-8.5v13.031c0 6.1094 3.0312 8.9688 7.6719 8.9688 3.5156 0 5.5938-0.8125 7.7188-3.75v3.1406h7.875z"/>
   </symbol>
   <symbol id="c" overflow="visible">
    <path d="m1.8438 0h8.4844v-10.578c0-2.5625 0.48438-4.7188 2.9844-4.7188 2.2344 0 2.8438 1.25 2.8438 4.4062v10.891h8.5v-10.578c0-2.5625 0.48438-4.7188 2.9688-4.7188 2.25 0 2.8594 1.25 2.8594 4.4062v10.891h8.4844v-12.656c0-5.8281-1.9531-9.3438-8.2031-9.3438-3.1406 0-5.5469 1.3438-7.375 3.9219-1.0312-2.2812-3.1406-3.9219-6.9844-3.9219-3.0625 0-5.7188 2.1719-6.7812 3.7969v-3.1875h-7.7812z"/>
   </symbol>
   <symbol id="k" overflow="visible">
    <path d="m13.672-16.281c2.2031-0.125 3.5938 2.2344 3.5938 5.3906 0 4.0312-1.3906 5.7969-3.6719 5.7969-2.1719 0-3.6719-1.7656-3.6719-5.7969 0-2.4219 0.85938-5.3906 3.75-5.3906zm-12.25 5.8281c0 7.3125 5.3125 11.062 12.172 11.062s12.156-3.6719 12.156-11.5c0-6.6562-4.6562-11.109-12.203-11.109-7.2188 0-12.125 4.125-12.125 11.547z"/>
   </symbol>
   <symbol id="j" overflow="visible">
    <path d="m1.9531 0h8.5v-10.891c0-2.7344 0.6875-4.4062 3.2969-4.4062 2.4062 0 2.9844 1.875 2.9844 3.9844v11.312h8.4844v-12.812c0-5.875-2.6562-9.1875-8.2812-9.1875-3.2188 0-5.3125 1.3906-7.2188 3.9531v-3.3438h-7.7656z"/>
   </symbol>
   <symbol id="i" overflow="visible">
    <path d="m16.078-6.0781h-1.3438c-2.375 0-2.6562-0.70312-2.6562-2.6562v-7.75h4.0781v-4.9062h-4.0781v-6.6406h-8.3594v6.6406h-3.1406v4.9062h3.0156v8.9375c0 7.3906 1.3438 8.1562 12.484 7.5469z"/>
   </symbol>
  </g>
 </defs>
 <path d="m10.072 71.716h398.8v129.42h-24.078s1.5039-51.918-20.316-51.918c-21.82 0-18.059 51.918-18.059 51.918h-23.578s2.5078-51.918-21.57-51.918c-24.078 0-18.309 51.918-18.309 51.918h-23.074s4.5117-51.918-21.07-51.918-18.812 51.918-18.812 51.918h-21.82s3.7617-51.918-21.07-51.918c-24.828 0-18.809 51.918-18.809 51.918h-23.328s3.7617-51.918-18.059-51.918c-21.82 0-19.562 51.918-19.562 51.918h-24.078s5.2656-51.168-18.812-51.168c-24.078 0-18.812 51.168-18.812 51.168h-25.582z" fill="#1c1c19"/>
 <g fill="#fff">
  <path d="m33.458 139.43h40.133s10.031-54.176-20.066-54.176-20.066 54.176-20.066 54.176"/>
  <path d="m95.915 139.43h40.129s10.035-54.176-20.066-54.176c-30.098 0-20.062 54.176-20.062 54.176"/>
  <path d="m157.99 139.43h40.133s10.031-54.176-20.066-54.176-20.066 54.176-20.066 54.176"/>
  <path d="m220.45 139.43h40.129s10.031-54.176-20.066-54.176c-30.098 0-20.062 54.176-20.062 54.176"/>
  <path d="m282.9 139.43h40.129s10.031-54.176-20.066-54.176-20.062 54.176-20.062 54.176"/>
  <path d="m345.35 139.43h40.133s10.031-54.176-20.066-54.176-20.066 54.176-20.066 54.176"/>
 </g>
 <g>
  <path d="m10.072 212.1h398.8v19.062h-398.8z" fill="#35469d"/>
  <g transform="translate(-90.319 -131.5)" fill="#e85c17">
   <use x="96.084503" y="192.3268" width="100%" height="100%" xlink:href="#t"/>
   <use x="162.7309" y="192.3268" width="100%" height="100%" xlink:href="#s"/>
   <use x="217.6577" y="192.3268" width="100%" height="100%" xlink:href="#r"/>
   <use x="276.4675" y="192.3268" width="100%" height="100%" xlink:href="#q"/>
   <use x="327.4407" y="192.3268" width="100%" height="100%" xlink:href="#p"/>
   <use x="382.36749" y="192.3268" width="100%" height="100%" xlink:href="#o"/>
   <use x="405.87729" y="192.3268" width="100%" height="100%" xlink:href="#n"/>
   <use x="452.9675" y="192.3268" width="100%" height="100%" xlink:href="#m"/>
  </g>
  <g transform="translate(-90.319 -131.5)" fill="#e85c17">
   <use x="97.431198" y="402.9498" width="100%" height="100%" xlink:href="#l"/>
   <use x="124.64914" y="402.9498" width="100%" height="100%" xlink:href="#a"/>
   <use x="151.86707" y="402.9498" width="100%" height="100%" xlink:href="#b"/>
   <use x="179.08501" y="402.9498" width="100%" height="100%" xlink:href="#h"/>
   <use x="206.30295" y="402.9498" width="100%" height="100%" xlink:href="#a"/>
   <use x="233.52087" y="402.9498" width="100%" height="100%" xlink:href="#b"/>
   <use x="260.7388" y="402.9498" width="100%" height="100%" xlink:href="#g"/>
   <use x="274.32739" y="402.9498" width="100%" height="100%" xlink:href="#f"/>
   <use x="306.07483" y="402.9498" width="100%" height="100%" xlink:href="#e"/>
   <use x="333.29276" y="402.9498" width="100%" height="100%" xlink:href="#a"/>
   <use x="360.51071" y="402.9498" width="100%" height="100%" xlink:href="#d"/>
   <use x="387.72864" y="402.9498" width="100%" height="100%" xlink:href="#c"/>
   <use x="428.53516" y="402.9498" width="100%" height="100%" xlink:href="#k"/>
   <use x="455.75308" y="402.9498" width="100%" height="100%" xlink:href="#j"/>
   <use x="482.97101" y="402.9498" width="100%" height="100%" xlink:href="#i"/>
  </g>
 </g>
</svg>
